<svg version="1.1" id="Layer_1" xmlns="http://www.w3.org/2000/svg" xmlns:xlink="http://www.w3.org/1999/xlink" x="0px" y="0px"
	 width="100%" viewBox="0 0 500 161" enable-background="new 0 0 500 161" xml:space="preserve">
<path fill="#542580" opacity="1.000000" stroke="none" 
	d="
M335.000000,162.000000 
	C223.333359,162.000000 112.166710,162.000000 1.000045,162.000000 
	C1.000030,108.333366 1.000030,54.666725 1.000015,1.000066 
	C167.666611,1.000044 334.333221,1.000044 500.999878,1.000022 
	C500.999908,54.666595 500.999908,108.333191 500.999939,161.999893 
	C445.833344,162.000000 390.666656,162.000000 335.000000,162.000000 
M212.656036,149.118546 
	C212.656036,149.118546 213.136505,149.155930 213.136505,149.155930 
	C213.136505,149.155930 213.612869,149.083023 214.017685,149.776840 
	C215.451279,150.292938 216.884872,150.809036 218.788742,151.494446 
	C218.512344,146.611115 218.522797,142.450577 217.977921,138.364090 
	C217.408127,134.090851 214.267548,132.713028 210.334366,133.019485 
	C207.467163,133.242874 204.700958,133.834091 205.045944,137.885147 
	C206.590042,137.201309 207.857651,136.358200 209.236328,136.093353 
	C211.473602,135.663620 212.115997,136.511307 211.303116,139.207184 
	C209.685715,139.993362 207.971191,140.629059 206.471176,141.597107 
	C203.363297,143.602814 202.288116,146.492432 204.726837,149.484558 
	C207.071152,152.360855 209.848740,151.869934 212.656036,149.118546 
M275.866913,137.895447 
	C277.050934,138.499573 278.234955,139.103714 280.720764,140.372070 
	C281.195587,138.180008 282.758575,135.183746 281.901611,134.098740 
	C279.674683,131.279144 277.624390,134.052444 275.792908,135.607712 
	C275.431580,135.914566 275.218506,136.396088 274.263550,136.591812 
	C272.860657,135.238632 271.457794,133.885468 270.054901,132.532288 
	C268.993744,138.213974 268.717224,143.002838 269.161743,147.723831 
	C269.295563,149.145218 271.434082,150.377838 273.172760,152.257462 
	C273.952057,146.438629 274.507233,142.293182 275.866913,137.895447 
M166.245392,136.277466 
	C164.610397,135.041748 162.975403,133.806030 160.705292,132.090286 
	C160.705292,138.043335 160.788223,142.335266 160.680191,146.622406 
	C160.586487,150.341339 162.078705,151.735275 165.695938,150.692825 
	C165.695938,148.372192 165.518967,146.217606 165.746429,144.106613 
	C165.967438,142.055450 166.603180,140.048965 167.834839,137.785629 
	C168.995407,138.476151 170.155975,139.166672 171.445251,139.933762 
	C171.873062,139.603973 172.689148,139.301178 172.831711,138.804901 
	C173.293259,137.198334 173.507523,135.520737 173.817017,133.870499 
	C172.214951,133.990234 170.554794,133.898407 169.034515,134.315948 
	C168.233658,134.535919 167.677109,135.645386 166.245392,136.277466 
M363.758179,137.688858 
	C364.797180,138.422592 365.836182,139.156326 367.062683,140.022476 
	C367.633179,139.588013 368.649689,139.214600 368.835358,138.593048 
	C369.288422,137.076340 369.356812,135.444733 369.580048,133.859375 
	C368.085510,133.904434 366.530945,133.717758 365.119507,134.083511 
	C364.303131,134.295074 363.717407,135.396942 362.239929,136.200317 
	C360.503510,134.974167 358.767120,133.748016 356.294861,132.002274 
	C356.294861,137.909973 356.180359,142.375824 356.329254,146.832870 
	C356.460480,150.760941 357.245972,151.193542 360.737030,150.501755 
	C361.520081,146.112305 362.249908,142.021271 363.758179,137.688858 
M228.768921,137.687134 
	C229.903732,138.454849 231.038544,139.222549 231.708008,139.675446 
	C233.571106,138.975067 235.027985,138.427399 236.245087,138.749756 
	C236.618988,141.796997 236.055740,145.531464 237.639664,147.691376 
	C239.119339,149.709167 242.836700,150.701904 245.650284,150.882584 
	C247.208176,150.982635 248.932373,148.493057 250.581604,147.170761 
	C250.285446,146.695251 249.989273,146.219742 249.693100,145.744232 
	C246.778915,147.827606 243.889847,149.586502 241.252090,145.351608 
	C242.932861,144.839584 244.508820,144.450180 246.016739,143.880646 
	C248.879135,142.799515 251.505859,140.751709 250.222427,137.693558 
	C249.365250,135.651154 246.158920,133.073441 244.337097,133.309265 
	C241.517715,133.674255 238.982941,136.237869 235.397583,137.885834 
	C234.815704,136.332733 234.233810,134.779633 233.651917,133.226532 
	C231.777252,134.183731 229.902573,135.140930 227.239929,136.200317 
	C225.503494,134.974182 223.767044,133.748047 221.294830,132.002350 
	C221.294830,137.909988 221.180328,142.375839 221.329208,146.832886 
	C221.460434,150.760880 222.246033,151.193542 225.737015,150.501755 
	C226.520081,146.112289 227.249924,142.021240 228.768921,137.687134 
M406.155518,136.513733 
	C405.921661,134.103210 405.542603,131.695923 405.488800,129.281387 
	C405.412994,125.879311 404.067352,124.356911 400.604858,125.298065 
	C400.604858,132.634781 400.508636,139.893341 400.645233,147.147491 
	C400.714142,150.806320 401.288544,151.051422 404.937897,150.506897 
	C405.647522,146.181091 406.322571,142.066254 407.757690,137.692871 
	C410.617310,135.949570 412.113312,136.703552 412.150391,140.100479 
	C412.173981,142.261551 412.231293,144.423889 412.184753,146.583725 
	C412.104614,150.301636 413.742371,151.632751 417.035461,150.792206 
	C417.035461,145.955276 417.138977,141.492874 417.004486,137.037674 
	C416.884949,133.078369 414.282196,132.273819 411.136505,133.379318 
	C409.532867,133.942886 408.282806,135.512589 406.155518,136.513733 
M92.852394,100.978165 
	C100.119270,96.230133 108.012642,95.318771 116.279106,97.412880 
	C123.523781,99.248138 130.649826,101.579674 137.934265,103.221764 
	C144.632462,104.731689 151.471970,105.614769 158.249207,106.774002 
	C158.472794,106.296638 158.696381,105.819275 158.919968,105.341919 
	C152.463272,95.440140 146.006577,85.538353 139.549896,75.636574 
	C139.168961,75.885551 138.788025,76.134529 138.407089,76.383507 
	C142.496735,84.422508 146.586380,92.461502 151.222641,101.575020 
	C147.355637,100.632370 144.478668,100.040443 141.666428,99.225304 
	C132.739960,96.637939 123.940903,93.517586 114.900139,91.441322 
	C103.272896,88.771057 96.954536,91.501389 90.892159,100.732323 
	C90.802628,101.092773 90.713104,101.453217 90.623581,101.813660 
	C91.136520,101.601601 91.649467,101.389534 92.852394,100.978165 
M272.046417,83.028572 
	C274.603210,89.699181 277.210632,96.350983 279.697998,103.047363 
	C281.219971,107.144676 283.961884,109.205307 288.402283,109.027229 
	C291.201447,108.914978 294.008820,109.006287 296.858612,109.006287 
	C296.858612,108.169083 297.000122,107.626823 296.838348,107.199333 
	C288.486847,85.129906 280.212616,63.029709 271.575989,41.072090 
	C270.710968,38.872841 267.863342,36.628666 265.521332,36.031837 
	C262.158356,35.174835 258.414337,35.813171 253.807892,35.813171 
	C258.559418,42.190880 255.561691,47.421921 253.520386,52.812744 
	C247.930328,67.575325 242.442047,82.376541 236.938889,97.171913 
	C232.502686,109.098747 232.671371,109.317276 245.473724,108.959045 
	C245.756149,108.951134 246.032898,108.740952 246.312302,108.625122 
	C245.886307,108.520645 245.460312,108.416161 245.034332,108.311684 
	C245.979248,103.938652 246.917389,99.564140 247.870590,95.192924 
	C249.509171,87.678734 255.537842,91.828247 259.613556,90.799797 
	C260.083191,90.681297 260.608612,90.786873 261.108124,90.783096 
	C267.698090,90.733269 268.802429,89.870125 271.266388,82.795815 
	C271.418274,82.660248 271.570190,82.524673 272.046417,83.028572 
M339.217743,65.424294 
	C336.812225,69.303909 333.216919,71.230202 328.763824,71.122833 
	C323.635773,70.999199 321.823639,74.011993 320.839264,78.688972 
	C328.166901,78.293785 331.732178,82.877098 334.489746,88.519447 
	C336.096039,91.806114 337.461029,95.238060 339.352783,98.350471 
	C341.407288,101.730675 343.807251,104.934135 346.363129,107.955360 
	C347.095917,108.821594 349.293518,109.510643 350.129456,109.044243 
	C353.790375,107.001640 357.197906,104.504951 361.230469,101.817780 
	C350.451752,94.641083 346.731964,81.470383 333.389374,77.052391 
	C336.647400,76.187401 338.865479,75.707565 341.012238,75.008728 
	C348.294373,72.638153 353.628326,68.279213 355.146423,60.376316 
	C357.559143,47.816574 348.986267,37.099659 334.979126,36.114254 
	C324.529541,35.379120 314.002197,35.737850 303.509094,35.651428 
	C302.463928,35.642818 301.416351,35.926456 301.200500,35.956982 
	C301.879913,42.104359 302.964844,47.828762 303.059906,53.569553 
	C303.316406,69.061119 303.116241,84.559799 303.173004,100.055382 
	C303.192230,105.305748 305.656952,108.574455 310.014099,108.911552 
	C313.596863,109.188744 317.218109,108.968094 320.433289,108.968094 
	C315.714569,86.899925 319.107635,64.990318 317.841431,43.255745 
	C337.804352,42.044529 345.267120,49.721844 339.217743,65.424294 
M227.812424,43.747070 
	C224.299103,41.604809 220.949371,37.997845 217.243027,37.583885 
	C203.996735,36.104416 190.629456,35.708210 178.007706,34.944515 
	C178.753464,43.166424 179.784714,50.054798 179.919952,56.960716 
	C180.200394,71.282341 179.976318,85.613358 180.018280,99.940346 
	C180.036972,106.317955 182.727982,108.932846 189.149124,109.000603 
	C191.972565,109.030396 194.796570,109.005615 197.321152,109.005615 
	C192.388855,87.139610 196.110809,65.204369 194.614990,43.047134 
	C198.816788,43.047134 202.286789,42.894928 205.739090,43.077450 
	C214.030960,43.515839 217.992889,48.490116 217.899017,58.104881 
	C217.805588,67.672874 214.235016,72.045151 205.605637,72.119354 
	C200.286469,72.165092 198.303757,74.750572 197.596588,80.030060 
	C202.954147,79.677025 207.957596,79.645233 212.872665,78.970108 
	C230.875107,76.497314 238.362549,59.514839 227.812424,43.747070 
M48.542500,19.739346 
	C66.104698,37.827511 79.205650,58.436966 84.416237,83.746613 
	C85.215027,81.454811 86.040794,79.515831 86.570808,77.499123 
	C92.573578,54.658566 105.266289,35.853279 121.452141,19.078281 
	C122.633530,17.853886 122.679970,15.534402 123.254074,13.724049 
	C121.424210,14.282130 119.505737,14.654714 117.798828,15.470168 
	C116.826279,15.934791 116.199921,17.123125 115.416382,17.984398 
	C109.721039,24.244766 102.590309,27.950144 94.344048,29.426514 
	C92.297737,29.792871 90.088654,29.250048 86.857544,29.060944 
	C91.499588,22.598227 94.810623,16.794342 88.140717,11.573130 
	C86.619560,10.382371 82.138008,10.700766 80.700813,12.078698 
	C75.213921,17.339361 78.019463,22.856152 82.720360,29.005264 
	C79.458641,29.197100 77.271393,29.709543 75.218918,29.380730 
	C65.793533,27.870750 58.292717,23.030443 52.013817,15.900071 
	C50.826347,14.551561 48.251480,14.424772 46.316784,13.734257 
	C46.876457,15.563293 47.436131,17.392330 48.542500,19.739346 
M371.493408,44.909618 
	C374.586456,44.909618 377.679474,44.909618 380.990265,44.909618 
	C380.990265,61.409447 381.314850,77.223618 380.902435,93.018532 
	C380.456207,110.109314 383.605988,109.232307 397.678497,108.962456 
	C397.995087,108.956383 398.308960,108.809074 397.559662,109.002670 
	C396.963501,101.248245 396.084412,93.718628 395.876984,86.170555 
	C395.588806,75.684074 395.911499,65.181992 395.739410,54.690418 
	C395.687439,51.522774 394.861023,48.367832 394.344116,44.903866 
	C398.281128,44.903866 402.898560,45.002995 407.510040,44.878853 
	C413.316132,44.722557 415.860413,42.259979 416.884430,36.067173 
	C416.428711,35.937965 415.965363,35.692528 415.501556,35.691620 
	C400.010315,35.661316 384.518311,35.565475 369.028107,35.689411 
	C363.150330,35.736439 361.116150,37.898643 359.585815,44.909618 
	C363.283508,44.909618 366.901947,44.909618 371.493408,44.909618 
M435.251129,109.004463 
	C436.472137,108.920715 437.693115,108.836967 438.050781,108.812439 
	C437.335388,101.830261 436.214325,95.293030 436.085327,88.736282 
	C435.794098,73.930893 435.953491,59.115692 436.018280,44.304871 
	C436.036438,40.154312 434.541046,36.780746 430.397156,36.075745 
	C426.487030,35.410515 422.374847,35.932957 419.104553,35.932957 
	C419.817627,41.890434 420.960846,47.432316 421.054871,52.991943 
	C421.319397,68.630707 421.110931,84.276939 421.175140,99.919876 
	C421.201080,106.242607 424.013062,108.920654 430.357056,109.001602 
	C431.688171,109.018593 433.019714,109.004356 435.251129,109.004463 
M467.543762,35.630821 
	C465.486206,35.630821 463.428650,35.630821 462.122650,35.630821 
	C462.851074,42.332623 463.965393,48.369820 464.075226,54.425232 
	C464.349792,69.560287 464.205933,84.703766 464.147156,99.843536 
	C464.129608,104.359489 465.705048,107.978477 470.324768,108.769524 
	C474.080505,109.412636 478.034119,108.900185 481.073700,108.900185 
	C480.345886,101.807884 479.231262,95.271873 479.093689,88.715363 
	C478.797058,74.579819 479.007568,60.433739 479.000549,46.291977 
	C478.996368,37.863968 476.942474,35.796387 467.543762,35.630821 
M115.544334,113.832870 
	C121.427452,114.935905 127.353966,115.849747 133.183350,117.187035 
	C141.585892,119.114616 144.597183,117.985107 149.812149,109.901863 
	C148.364120,110.494843 147.253174,110.801224 146.296158,111.367668 
	C142.371277,113.690735 138.623215,113.543266 134.053238,112.560738 
	C123.856079,110.368385 113.417702,109.135773 103.016991,108.155067 
	C100.045944,107.874916 96.605484,109.317406 93.838295,110.815834 
	C88.258507,113.837265 82.272972,114.870926 77.250351,111.402687 
	C72.330109,108.005150 67.422256,107.589020 62.149834,108.147408 
	C54.719612,108.934326 47.174225,109.574402 39.988358,111.459824 
	C32.993103,113.295242 26.520084,114.372787 20.125170,110.159485 
	C20.024988,110.093483 19.680504,110.398293 19.240128,110.650055 
	C20.648331,111.944389 22.143127,113.041901 23.292025,114.426437 
	C26.664883,118.491081 30.334187,118.808464 35.537529,117.581238 
	C45.529686,115.224541 55.809189,113.985786 66.026932,112.763374 
	C68.301552,112.491249 71.188118,113.686958 73.148460,115.100571 
	C79.736931,119.851540 89.863182,119.834686 96.546989,114.941292 
	C98.266441,113.682434 100.651291,112.759239 102.751373,112.716820 
	C106.715485,112.636734 110.694771,113.308037 115.544334,113.832870 
M65.686363,68.684692 
	C70.191895,72.777443 74.697418,76.870193 79.201843,80.961937 
	C74.396378,61.487156 65.262993,44.422073 48.898701,31.787199 
	C47.501694,30.708570 45.443943,30.485710 43.693142,29.865303 
	C43.464912,30.385071 43.236687,30.904840 43.008457,31.424608 
	C46.545387,34.234215 50.412098,36.722458 53.539165,39.931461 
	C57.841743,44.346771 58.050144,49.094177 54.669361,52.444885 
	C53.227928,48.715588 51.049194,45.846870 46.585857,46.918564 
	C45.587093,47.158379 44.871475,48.577412 44.025505,49.453556 
	C46.608253,51.729805 49.191002,54.006054 52.077389,56.549908 
	C46.700661,61.485703 39.122711,58.314095 31.982477,59.292080 
	C34.675114,60.910954 37.471359,61.905941 40.277321,61.934151 
	C49.100483,62.022839 57.415268,63.780655 65.686363,68.684692 
M95.834969,75.362480 
	C101.030380,71.893959 105.844872,67.449844 111.528152,65.230812 
	C117.231750,63.003841 123.812820,63.060345 129.986023,61.982609 
	C132.534515,61.537685 135.022263,60.744793 137.537628,60.110157 
	C137.422272,59.449440 137.306915,58.788723 137.191574,58.128006 
	C130.272430,58.531658 122.971436,61.240143 115.894569,55.287594 
	C118.275368,54.812050 119.773926,54.911606 120.720963,54.236958 
	C122.461983,52.996689 123.999962,51.395473 125.316292,49.706055 
	C125.549171,49.407166 124.204163,47.116096 123.740402,47.165897 
	C121.425514,47.414494 119.008011,47.818684 116.939034,48.816181 
	C115.757408,49.385868 115.172821,51.193909 113.845657,53.138546 
	C111.476120,47.393780 112.753410,43.085987 116.204948,39.640499 
	C119.321129,36.529770 123.070557,34.053402 126.540726,31.297283 
	C126.176155,30.741444 125.811584,30.185604 125.447014,29.629765 
	C123.309258,30.723366 120.904121,31.485968 119.075890,32.962753 
	C103.960709,45.172256 95.519547,61.472095 91.240295,80.464607 
	C92.604256,78.934822 93.968216,77.405037 95.834969,75.362480 
M42.839394,94.357399 
	C35.082371,96.781342 27.325348,99.205284 19.568325,101.629227 
	C19.377808,101.191483 19.187290,100.753738 18.996773,100.315994 
	C22.755751,92.774948 26.514729,85.233902 30.273706,77.692856 
	C29.852419,77.476303 29.431131,77.259750 29.009846,77.043198 
	C22.879715,86.482567 16.749584,95.921936 9.945481,106.399109 
	C14.905309,105.968407 18.454027,106.062424 21.803679,105.291504 
	C30.692427,103.245750 39.421558,100.454582 48.357742,98.684814 
	C54.449203,97.478424 60.812931,96.880264 66.995895,97.189674 
	C70.709908,97.375526 74.310493,99.828056 78.098152,101.315346 
	C74.558296,93.630516 68.509483,89.780273 60.671955,90.784210 
	C54.935238,91.519051 49.291153,92.976997 42.839394,94.357399 
M389.300354,151.242661 
	C394.371033,150.214218 394.777344,149.899597 395.755676,146.244156 
	C388.772552,148.896591 385.261963,148.586472 384.212830,144.125015 
	C383.239014,139.983871 383.766327,135.367905 384.356659,131.060226 
	C384.519104,129.875061 387.388031,128.134354 388.808472,128.310913 
	C390.205261,128.484528 391.594116,130.622772 392.492615,132.183304 
	C393.021515,133.101883 392.589264,134.573898 392.589264,135.797012 
	C392.980133,136.034088 393.370972,136.271149 393.761841,136.508224 
	C395.115265,134.956100 397.853485,132.981644 397.535583,131.939285 
	C396.861206,129.728149 394.965454,127.223961 392.902954,126.241859 
	C388.750854,124.264771 384.326385,124.845032 380.927307,128.277756 
	C376.493805,132.755127 376.017365,138.277756 377.794373,144.022095 
	C379.381470,149.152390 383.251709,151.276291 389.300354,151.242661 
M181.164993,136.877411 
	C181.736176,139.934525 181.766861,143.233307 183.001129,145.993973 
	C185.016861,150.502533 189.275955,151.627960 193.911530,151.185608 
	C197.380966,150.854523 200.103546,149.441010 200.807449,146.580276 
	C197.355545,146.769226 192.832535,148.354446 190.971695,146.784378 
	C188.577637,144.764420 188.282059,140.225510 187.176132,136.741943 
	C186.992340,136.162994 187.214142,135.415497 187.369675,134.775345 
	C188.112930,131.716339 188.515320,127.954613 192.700836,128.129776 
	C197.084915,128.313263 197.000458,131.918045 196.887024,135.203247 
	C196.880127,135.402542 197.303406,135.616699 198.188904,136.439178 
	C199.473877,134.931015 201.964844,133.193710 201.719543,132.036362 
	C201.275162,129.939819 199.606720,127.396523 197.733078,126.434250 
	C190.528793,122.734200 183.881287,126.802734 181.164993,136.877411 
M148.444733,150.338333 
	C149.487885,149.532822 150.531052,148.727310 150.917892,148.428589 
	C153.093216,149.519363 154.977997,150.464447 157.132156,151.544601 
	C157.132156,146.124069 157.057541,141.836014 157.155869,137.551926 
	C157.233887,134.153030 155.910400,132.624680 152.208679,133.393738 
	C152.208679,136.271027 152.762558,139.214996 152.047012,141.808762 
	C151.381775,144.220230 149.363342,146.258377 147.940659,148.460876 
	C147.247955,148.195312 146.555252,147.929749 145.862549,147.664185 
	C145.862549,144.767258 145.825424,141.869720 145.872253,138.973541 
	C145.926636,135.609848 145.789139,132.486938 140.942810,133.351700 
	C140.942810,137.501389 140.840561,141.451813 140.967651,145.394867 
	C141.142151,150.809769 142.153122,151.545410 148.444733,150.338333 
M342.064178,146.660904 
	C341.995117,143.514099 341.903351,140.367569 341.863037,137.220398 
	C341.817413,133.657379 339.979095,132.770203 336.966797,133.315948 
	C336.966797,137.891891 336.802185,142.025238 337.008972,146.139908 
	C337.260803,151.150818 340.503021,152.733490 344.807465,150.095810 
	C345.783600,149.497681 346.611481,148.657562 346.902924,148.420547 
	C349.062378,149.516876 350.949585,150.475006 353.132629,151.583313 
	C353.132629,146.180084 353.055206,141.897263 353.157440,137.618744 
	C353.237732,134.258011 352.027069,132.586090 348.209198,133.410706 
	C348.209198,136.204468 348.354919,139.000748 348.172394,141.775452 
	C347.943115,145.260818 346.390778,147.646255 342.064178,146.660904 
M113.021141,147.471878 
	C111.537254,139.022293 118.777428,133.746796 120.329659,125.918442 
	C118.815361,126.217705 117.360840,126.855225 116.730629,127.962067 
	C114.924431,131.134338 113.452354,134.496841 111.523743,138.451309 
	C109.565254,134.954071 108.122269,132.343094 106.646942,129.750504 
	C104.091606,125.260071 104.007507,125.229477 99.503487,126.452164 
	C102.593315,133.795227 109.055931,139.832504 108.101570,148.795532 
	C108.036095,149.410385 110.126434,150.425705 111.353767,150.863281 
	C111.599609,150.950928 112.481094,149.255768 113.021141,147.471878 
M311.656586,130.789368 
	C310.322266,133.098526 308.987946,135.407684 307.765839,137.522583 
	C302.874695,134.233902 304.144653,125.131104 295.043701,125.793274 
	C295.877716,127.326065 296.387604,128.155014 296.796082,129.031235 
	C299.675385,135.207626 304.916779,140.433853 304.059540,148.170761 
	C303.948669,149.171265 306.682678,150.486984 307.969177,151.549545 
	C309.127777,146.225021 309.557373,141.975052 311.027069,138.121780 
	C312.566772,134.084900 315.105011,130.428879 317.230103,126.564079 
	C311.861328,123.871719 313.054718,128.333359 311.656586,130.789368 
M123.118202,148.259979 
	C127.085159,151.690170 131.914062,152.284470 135.270325,149.755569 
	C138.282013,147.486298 139.537384,141.918930 137.783035,137.885895 
	C135.888611,133.530869 132.217133,132.400497 127.910194,133.125809 
	C122.107033,134.103104 120.079460,139.941879 123.118202,148.259979 
M325.603424,151.285599 
	C331.918671,150.621887 334.741791,147.628845 334.555786,141.794464 
	C334.393066,136.689774 331.510529,133.381241 326.898071,133.005020 
	C321.639404,132.576080 318.395508,135.147842 317.573761,140.397339 
	C316.643127,146.342529 318.981049,149.816971 325.603424,151.285599 
M419.097107,141.617920 
	C419.770630,148.607407 422.254150,151.356247 427.832550,151.286514 
	C432.752258,151.225006 435.769836,148.333588 436.162140,143.305115 
	C436.593048,137.781815 434.153412,133.940613 429.673706,133.089127 
	C424.181488,132.045212 420.785583,134.542618 419.097107,141.617920 
M446.543213,74.183784 
	C448.365540,74.182358 450.189026,74.222534 452.009979,74.171951 
	C458.289642,73.997536 460.448273,72.037666 461.769989,65.307304 
	C461.313354,65.209541 460.856049,65.029343 460.397552,65.026344 
	C456.256134,64.999252 452.112610,64.922020 447.973358,65.017387 
	C442.003296,65.154938 439.410004,67.705170 438.640564,74.183777 
	C440.978027,74.183777 443.288147,74.183777 446.543213,74.183784 
M486.910217,150.932861 
	C488.313019,149.283051 490.825806,147.623703 490.811737,145.986099 
	C490.797150,144.291748 488.435242,142.512558 486.891815,140.980255 
	C486.108002,140.202042 484.747650,140.031540 483.865570,139.317459 
	C483.033997,138.644272 482.346283,137.681000 481.914276,136.704254 
	C481.804077,136.455048 483.119781,135.120621 483.405853,135.233536 
	C484.375580,135.616364 485.175293,136.427368 486.044189,137.069046 
	C486.827637,137.647583 487.616455,138.659348 488.403259,138.659653 
	C489.087769,138.659912 490.399323,137.422226 490.322205,136.893860 
	C490.177887,135.905243 489.270599,134.281082 488.606812,134.244019 
	C485.674103,134.080261 482.139954,133.411804 479.891571,134.737488 
	C475.857513,137.116058 477.973267,140.689468 480.087006,143.507614 
	C476.770569,148.429520 477.799713,150.550262 483.615631,151.184402 
	C484.427216,151.272919 485.265656,151.115173 486.910217,150.932861 
M472.889923,143.384598 
	C475.842896,141.861115 477.492188,138.990921 475.625275,136.503540 
	C474.184021,134.583298 470.677582,133.117172 468.219543,133.290955 
	C463.532867,133.622253 461.756134,137.439758 461.683197,141.849243 
	C461.611786,146.168121 462.961334,149.795853 467.622620,151.037460 
	C472.242645,152.268097 475.152954,150.296814 475.155914,146.161041 
	C470.514252,148.747421 470.482605,148.745102 467.008698,145.339294 
	C468.839813,144.782455 470.526550,144.269516 472.889923,143.384598 
M262.549835,150.954208 
	C263.878021,149.640274 265.206238,148.326355 266.534454,147.012421 
	C260.634796,148.693420 260.634796,148.693420 257.273468,145.366318 
	C258.921356,144.855392 260.854980,144.806595 261.880341,143.816849 
	C263.698547,142.061813 266.100098,139.791214 266.205963,137.635559 
	C266.379761,134.097168 263.151001,132.943130 259.845123,132.981949 
	C254.928024,133.039688 251.808578,136.764694 251.907883,142.398483 
	C252.016724,148.573257 255.116562,151.293396 262.549835,150.954208 
M453.101044,147.342575 
	C452.301086,144.965225 450.873535,142.575928 450.918396,140.214645 
	C450.949097,138.599121 453.031708,137.022614 454.196960,135.428650 
	C455.050049,136.814713 455.903137,138.200790 457.211914,140.327286 
	C458.046692,139.668884 460.152496,138.286575 460.033691,138.057404 
	C459.136749,136.327042 457.887695,133.593933 456.587738,133.504181 
	C453.870758,133.316574 450.390167,133.762131 448.427887,135.395157 
	C445.079742,138.181442 444.833099,142.760117 446.889709,146.367096 
	C448.145203,148.569061 451.115967,150.442047 453.666229,151.093933 
	C456.920868,151.925888 459.346741,150.084015 459.963745,146.384430 
	C457.439941,146.939072 455.615295,147.340073 453.101044,147.342575 
M441.840607,151.050232 
	C442.530212,150.587830 443.809204,150.135590 443.817352,149.661453 
	C443.891815,145.339722 443.848145,141.008957 443.629272,136.691452 
	C443.460815,133.367966 441.449829,132.676208 438.705353,133.394943 
	C438.705353,138.163116 438.534912,142.645767 438.809418,147.101013 
	C438.891602,148.434875 440.216522,149.692169 441.840607,151.050232 
M111.119423,99.124069 
	C104.076660,98.917030 97.571953,100.362885 92.085815,105.650528 
	C103.573807,98.795830 115.073547,101.982803 126.718925,104.402435 
	C121.805527,102.681969 116.892120,100.961510 111.119423,99.124069 
M67.598137,102.404762 
	C70.618744,103.542244 73.639343,104.679726 76.971710,105.934608 
	C72.389038,97.694061 56.671356,96.860016 46.697731,103.391258 
	C52.857719,103.022575 59.809780,102.606491 67.598137,102.404762 
M283.496918,147.618011 
	C284.229614,149.553528 284.962341,151.489029 285.695038,153.424530 
	C286.169739,153.444366 286.644440,153.464203 287.119141,153.484024 
	C287.489990,151.497711 287.860840,149.511414 288.231689,147.525101 
	C286.764618,147.338821 285.297577,147.152557 283.496918,147.618011 
z"/>
<path fill="#FBFBFC" opacity="1.000000" stroke="none" 
	d="
M339.433655,65.097435 
	C345.267120,49.721844 337.804352,42.044529 317.841431,43.255745 
	C319.107635,64.990318 315.714569,86.899925 320.433289,108.968094 
	C317.218109,108.968094 313.596863,109.188744 310.014099,108.911552 
	C305.656952,108.574455 303.192230,105.305748 303.173004,100.055382 
	C303.116241,84.559799 303.316406,69.061119 303.059906,53.569553 
	C302.964844,47.828762 301.879913,42.104359 301.200500,35.956982 
	C301.416351,35.926456 302.463928,35.642818 303.509094,35.651428 
	C314.002197,35.737850 324.529541,35.379120 334.979126,36.114254 
	C348.986267,37.099659 357.559143,47.816574 355.146423,60.376316 
	C353.628326,68.279213 348.294373,72.638153 341.012238,75.008728 
	C338.865479,75.707565 336.647400,76.187401 333.389374,77.052391 
	C346.731964,81.470383 350.451752,94.641083 361.230469,101.817780 
	C357.197906,104.504951 353.790375,107.001640 350.129456,109.044243 
	C349.293518,109.510643 347.095917,108.821594 346.363129,107.955360 
	C343.807251,104.934135 341.407288,101.730675 339.352783,98.350471 
	C337.461029,95.238060 336.096039,91.806114 334.489746,88.519447 
	C331.732178,82.877098 328.166901,78.293785 320.839264,78.688972 
	C321.823639,74.011993 323.635773,70.999199 328.763824,71.122833 
	C333.216919,71.230202 336.812225,69.303909 339.433655,65.097435 
z"/>
<path fill="#FBFAFC" opacity="1.000000" stroke="none" 
	d="
M228.045105,44.031441 
	C238.362549,59.514839 230.875107,76.497314 212.872665,78.970108 
	C207.957596,79.645233 202.954147,79.677025 197.596588,80.030060 
	C198.303757,74.750572 200.286469,72.165092 205.605637,72.119354 
	C214.235016,72.045151 217.805588,67.672874 217.899017,58.104881 
	C217.992889,48.490116 214.030960,43.515839 205.739090,43.077450 
	C202.286789,42.894928 198.816788,43.047134 194.614990,43.047134 
	C196.110809,65.204369 192.388855,87.139610 197.321152,109.005615 
	C194.796570,109.005615 191.972565,109.030396 189.149124,109.000603 
	C182.727982,108.932846 180.036972,106.317955 180.018280,99.940346 
	C179.976318,85.613358 180.200394,71.282341 179.919952,56.960716 
	C179.784714,50.054798 178.753464,43.166424 178.007706,34.944515 
	C190.629456,35.708210 203.996735,36.104416 217.243027,37.583885 
	C220.949371,37.997845 224.299103,41.604809 228.045105,44.031441 
z"/>
<path fill="#FBFAFC" opacity="1.000000" stroke="none" 
	d="
M270.810516,83.202301 
	C268.802429,89.870125 267.698090,90.733269 261.108124,90.783096 
	C260.608612,90.786873 260.083191,90.681297 259.613556,90.799797 
	C255.537842,91.828247 249.509171,87.678734 247.870590,95.192924 
	C246.917389,99.564140 245.979248,103.938652 245.034332,108.311684 
	C245.460312,108.416161 245.886307,108.520645 246.312302,108.625122 
	C246.032898,108.740952 245.756149,108.951134 245.473724,108.959045 
	C232.671371,109.317276 232.502686,109.098747 236.938889,97.171913 
	C242.442047,82.376541 247.930328,67.575325 253.520386,52.812744 
	C255.561691,47.421921 258.559418,42.190880 253.807892,35.813171 
	C258.414337,35.813171 262.158356,35.174835 265.521332,36.031837 
	C267.863342,36.628666 270.710968,38.872841 271.575989,41.072090 
	C280.212616,63.029709 288.486847,85.129906 296.838348,107.199333 
	C297.000122,107.626823 296.858612,108.169083 296.858612,109.006287 
	C294.008820,109.006287 291.201447,108.914978 288.402283,109.027229 
	C283.961884,109.205307 281.219971,107.144676 279.697998,103.047363 
	C277.210632,96.350983 274.603210,89.699181 271.816681,82.345627 
	C268.614532,73.818672 265.642151,65.974663 262.218872,56.940811 
	C258.756958,66.213623 255.700043,74.401711 252.414444,83.202301 
	C259.218384,83.202301 265.014465,83.202301 270.810516,83.202301 
z"/>
<path fill="#FBFAFC" opacity="1.000000" stroke="none" 
	d="
M48.269150,19.480356 
	C47.436131,17.392330 46.876457,15.563293 46.316784,13.734257 
	C48.251480,14.424772 50.826347,14.551561 52.013817,15.900071 
	C58.292717,23.030443 65.793533,27.870750 75.218918,29.380730 
	C77.271393,29.709543 79.458641,29.197100 82.720360,29.005264 
	C78.019463,22.856152 75.213921,17.339361 80.700813,12.078698 
	C82.138008,10.700766 86.619560,10.382371 88.140717,11.573130 
	C94.810623,16.794342 91.499588,22.598227 86.857544,29.060944 
	C90.088654,29.250048 92.297737,29.792871 94.344048,29.426514 
	C102.590309,27.950144 109.721039,24.244766 115.416382,17.984398 
	C116.199921,17.123125 116.826279,15.934791 117.798828,15.470168 
	C119.505737,14.654714 121.424210,14.282130 123.254074,13.724049 
	C122.679970,15.534402 122.633530,17.853886 121.452141,19.078281 
	C105.266289,35.853279 92.573578,54.658566 86.570808,77.499123 
	C86.040794,79.515831 85.215027,81.454811 84.416237,83.746613 
	C79.205650,58.436966 66.104698,37.827511 48.269150,19.480356 
z"/>
<path fill="#FCFBFD" opacity="1.000000" stroke="none" 
	d="
M371.006897,44.909618 
	C366.901947,44.909618 363.283508,44.909618 359.585815,44.909618 
	C361.116150,37.898643 363.150330,35.736439 369.028107,35.689411 
	C384.518311,35.565475 400.010315,35.661316 415.501556,35.691620 
	C415.965363,35.692528 416.428711,35.937965 416.884430,36.067173 
	C415.860413,42.259979 413.316132,44.722557 407.510040,44.878853 
	C402.898560,45.002995 398.281128,44.903866 394.344116,44.903866 
	C394.861023,48.367832 395.687439,51.522774 395.739410,54.690418 
	C395.911499,65.181992 395.588806,75.684074 395.876984,86.170555 
	C396.084412,93.718628 396.963501,101.248245 397.559662,109.002670 
	C398.308960,108.809074 397.995087,108.956383 397.678497,108.962456 
	C383.605988,109.232307 380.456207,110.109314 380.902435,93.018532 
	C381.314850,77.223618 380.990265,61.409447 380.990265,44.909618 
	C377.679474,44.909618 374.586456,44.909618 371.006897,44.909618 
z"/>
<path fill="#FCFBFD" opacity="1.000000" stroke="none" 
	d="
M434.801086,109.004486 
	C433.019714,109.004356 431.688171,109.018593 430.357056,109.001602 
	C424.013062,108.920654 421.201080,106.242607 421.175140,99.919876 
	C421.110931,84.276939 421.319397,68.630707 421.054871,52.991943 
	C420.960846,47.432316 419.817627,41.890434 419.104553,35.932957 
	C422.374847,35.932957 426.487030,35.410515 430.397156,36.075745 
	C434.541046,36.780746 436.036438,40.154312 436.018280,44.304871 
	C435.953491,59.115692 435.794098,73.930893 436.085327,88.736282 
	C436.214325,95.293030 437.335388,101.830261 438.050781,108.812439 
	C437.693115,108.836967 436.472137,108.920715 434.801086,109.004486 
z"/>
<path fill="#FCFBFD" opacity="1.000000" stroke="none" 
	d="
M468.000122,35.631020 
	C476.942474,35.796387 478.996368,37.863968 479.000549,46.291977 
	C479.007568,60.433739 478.797058,74.579819 479.093689,88.715363 
	C479.231262,95.271873 480.345886,101.807884 481.073700,108.900185 
	C478.034119,108.900185 474.080505,109.412636 470.324768,108.769524 
	C465.705048,107.978477 464.129608,104.359489 464.147156,99.843536 
	C464.205933,84.703766 464.349792,69.560287 464.075226,54.425232 
	C463.965393,48.369820 462.851074,42.332623 462.122650,35.630821 
	C463.428650,35.630821 465.486206,35.630821 468.000122,35.631020 
z"/>
<path fill="#F3D25C" opacity="1.000000" stroke="none" 
	d="
M115.106049,113.749969 
	C110.694771,113.308037 106.715485,112.636734 102.751373,112.716820 
	C100.651291,112.759239 98.266441,113.682434 96.546989,114.941292 
	C89.863182,119.834686 79.736931,119.851540 73.148460,115.100571 
	C71.188118,113.686958 68.301552,112.491249 66.026932,112.763374 
	C55.809189,113.985786 45.529686,115.224541 35.537529,117.581238 
	C30.334187,118.808464 26.664883,118.491081 23.292025,114.426437 
	C22.143127,113.041901 20.648331,111.944389 19.240128,110.650055 
	C19.680504,110.398293 20.024988,110.093483 20.125170,110.159485 
	C26.520084,114.372787 32.993103,113.295242 39.988358,111.459824 
	C47.174225,109.574402 54.719612,108.934326 62.149834,108.147408 
	C67.422256,107.589020 72.330109,108.005150 77.250351,111.402687 
	C82.272972,114.870926 88.258507,113.837265 93.838295,110.815834 
	C96.605484,109.317406 100.045944,107.874916 103.016991,108.155067 
	C113.417702,109.135773 123.856079,110.368385 134.053238,112.560738 
	C138.623215,113.543266 142.371277,113.690735 146.296158,111.367668 
	C147.253174,110.801224 148.364120,110.494843 149.812149,109.901863 
	C144.597183,117.985107 141.585892,119.114616 133.183350,117.187035 
	C127.353966,115.849747 121.427452,114.935905 115.106049,113.749969 
z"/>
<path fill="#F8F6FA" opacity="1.000000" stroke="none" 
	d="
M65.381912,68.474350 
	C57.415268,63.780655 49.100483,62.022839 40.277321,61.934151 
	C37.471359,61.905941 34.675114,60.910954 31.982477,59.292080 
	C39.122711,58.314095 46.700661,61.485703 52.077389,56.549908 
	C49.191002,54.006054 46.608253,51.729805 44.025505,49.453552 
	C44.871475,48.577412 45.587093,47.158379 46.585857,46.918564 
	C51.049194,45.846870 53.227928,48.715588 54.669361,52.444885 
	C58.050144,49.094177 57.841743,44.346771 53.539165,39.931461 
	C50.412098,36.722458 46.545387,34.234215 43.008457,31.424608 
	C43.236687,30.904840 43.464912,30.385071 43.693142,29.865303 
	C45.443943,30.485710 47.501694,30.708570 48.898701,31.787199 
	C65.262993,44.422073 74.396378,61.487156 79.201843,80.961937 
	C74.697418,76.870193 70.191895,72.777443 65.381912,68.474350 
z"/>
<path fill="#F7F5F9" opacity="1.000000" stroke="none" 
	d="
M95.583572,75.618866 
	C93.968216,77.405037 92.604256,78.934822 91.240295,80.464607 
	C95.519547,61.472095 103.960709,45.172256 119.075890,32.962753 
	C120.904121,31.485968 123.309258,30.723366 125.447014,29.629765 
	C125.811584,30.185604 126.176155,30.741444 126.540726,31.297283 
	C123.070557,34.053402 119.321129,36.529770 116.204948,39.640499 
	C112.753410,43.085987 111.476120,47.393780 113.845657,53.138546 
	C115.172821,51.193909 115.757408,49.385868 116.939034,48.816181 
	C119.008011,47.818684 121.425514,47.414494 123.740402,47.165897 
	C124.204163,47.116096 125.549171,49.407166 125.316292,49.706055 
	C123.999962,51.395473 122.461983,52.996689 120.720963,54.236958 
	C119.773926,54.911606 118.275368,54.812050 115.894569,55.287594 
	C122.971436,61.240143 130.272430,58.531658 137.191574,58.128006 
	C137.306915,58.788723 137.422272,59.449440 137.537628,60.110157 
	C135.022263,60.744793 132.534515,61.537685 129.986023,61.982609 
	C123.812820,63.060345 117.231750,63.003841 111.528152,65.230812 
	C105.844872,67.449844 101.030380,71.893959 95.583572,75.618866 
z"/>
<path fill="#F7D55B" opacity="1.000000" stroke="none" 
	d="
M91.290100,100.349045 
	C96.954536,91.501389 103.272896,88.771057 114.900139,91.441322 
	C123.940903,93.517586 132.739960,96.637939 141.666428,99.225304 
	C144.478668,100.040443 147.355637,100.632370 151.222641,101.575020 
	C146.586380,92.461502 142.496735,84.422508 138.407089,76.383507 
	C138.788025,76.134529 139.168961,75.885551 139.549896,75.636574 
	C146.006577,85.538353 152.463272,95.440140 158.919968,105.341919 
	C158.696381,105.819275 158.472794,106.296638 158.249207,106.774002 
	C151.471970,105.614769 144.632462,104.731689 137.934265,103.221764 
	C130.649826,101.579674 123.523781,99.248138 116.279106,97.412880 
	C108.012642,95.318771 100.119270,96.230133 92.291382,100.868546 
	C91.583618,100.622292 91.436859,100.485664 91.290100,100.349045 
z"/>
<path fill="#F7D55B" opacity="1.000000" stroke="none" 
	d="
M43.222588,94.235016 
	C49.291153,92.976997 54.935238,91.519051 60.671955,90.784210 
	C68.509483,89.780273 74.558296,93.630516 78.098152,101.315346 
	C74.310493,99.828056 70.709908,97.375526 66.995895,97.189674 
	C60.812931,96.880264 54.449203,97.478424 48.357742,98.684814 
	C39.421558,100.454582 30.692427,103.245750 21.803679,105.291504 
	C18.454027,106.062424 14.905309,105.968407 9.945481,106.399109 
	C16.749584,95.921936 22.879715,86.482567 29.009846,77.043198 
	C29.431131,77.259750 29.852419,77.476303 30.273706,77.692856 
	C26.514729,85.233902 22.755751,92.774948 18.996773,100.315994 
	C19.187290,100.753738 19.377808,101.191483 19.568325,101.629227 
	C27.325348,99.205284 35.082371,96.781342 43.222588,94.235016 
z"/>
<path fill="#F5F2F8" opacity="1.000000" stroke="none" 
	d="
M388.873230,151.269135 
	C383.251709,151.276291 379.381470,149.152390 377.794373,144.022095 
	C376.017365,138.277756 376.493805,132.755127 380.927307,128.277756 
	C384.326385,124.845032 388.750854,124.264771 392.902954,126.241859 
	C394.965454,127.223961 396.861206,129.728149 397.535583,131.939285 
	C397.853485,132.981644 395.115265,134.956100 393.761841,136.508224 
	C393.370972,136.271149 392.980133,136.034088 392.589264,135.797012 
	C392.589264,134.573898 393.021515,133.101883 392.492615,132.183304 
	C391.594116,130.622772 390.205261,128.484528 388.808472,128.310913 
	C387.388031,128.134354 384.519104,129.875061 384.356659,131.060226 
	C383.766327,135.367905 383.239014,139.983871 384.212830,144.125015 
	C385.261963,148.586472 388.772552,148.896591 395.755676,146.244156 
	C394.777344,149.899597 394.371033,150.214218 388.873230,151.269135 
z"/>
<path fill="#F5F2F7" opacity="1.000000" stroke="none" 
	d="
M181.216949,136.467438 
	C183.881287,126.802734 190.528793,122.734200 197.733078,126.434250 
	C199.606720,127.396523 201.275162,129.939819 201.719543,132.036362 
	C201.964844,133.193710 199.473877,134.931015 198.188904,136.439178 
	C197.303406,135.616699 196.880127,135.402542 196.887024,135.203247 
	C197.000458,131.918045 197.084915,128.313263 192.700836,128.129776 
	C188.515320,127.954613 188.112930,131.716339 187.369675,134.775345 
	C187.214142,135.415497 186.992340,136.162994 187.176132,136.741943 
	C188.282059,140.225510 188.577637,144.764420 190.971695,146.784378 
	C192.832535,148.354446 197.355545,146.769226 200.807449,146.580276 
	C200.103546,149.441010 197.380966,150.854523 193.911530,151.185608 
	C189.275955,151.627960 185.016861,150.502533 183.001129,145.993973 
	C181.766861,143.233307 181.736176,139.934525 181.216949,136.467438 
z"/>
<path fill="#F4F1F7" opacity="1.000000" stroke="none" 
	d="
M148.109177,150.558624 
	C142.153122,151.545410 141.142151,150.809769 140.967651,145.394867 
	C140.840561,141.451813 140.942810,137.501389 140.942810,133.351700 
	C145.789139,132.486938 145.926636,135.609848 145.872253,138.973541 
	C145.825424,141.869720 145.862549,144.767258 145.862549,147.664185 
	C146.555252,147.929749 147.247955,148.195312 147.940659,148.460876 
	C149.363342,146.258377 151.381775,144.220230 152.047012,141.808762 
	C152.762558,139.214996 152.208679,136.271027 152.208679,133.393738 
	C155.910400,132.624680 157.233887,134.153030 157.155869,137.551926 
	C157.057541,141.836014 157.132156,146.124069 157.132156,151.544601 
	C154.977997,150.464447 153.093216,149.519363 150.917892,148.428589 
	C150.531052,148.727310 149.487885,149.532822 148.109177,150.558624 
z"/>
<path fill="#F4F1F7" opacity="1.000000" stroke="none" 
	d="
M342.237000,147.043976 
	C346.390778,147.646255 347.943115,145.260818 348.172394,141.775452 
	C348.354919,139.000748 348.209198,136.204468 348.209198,133.410706 
	C352.027069,132.586090 353.237732,134.258011 353.157440,137.618744 
	C353.055206,141.897263 353.132629,146.180084 353.132629,151.583313 
	C350.949585,150.475006 349.062378,149.516876 346.902924,148.420547 
	C346.611481,148.657562 345.783600,149.497681 344.807465,150.095810 
	C340.503021,152.733490 337.260803,151.150818 337.008972,146.139908 
	C336.802185,142.025238 336.966797,137.891891 336.966797,133.315948 
	C339.979095,132.770203 341.817413,133.657379 341.863037,137.220398 
	C341.903351,140.367569 341.995117,143.514099 342.237000,147.043976 
z"/>
<path fill="#F6F4F8" opacity="1.000000" stroke="none" 
	d="
M113.045319,147.927261 
	C112.481094,149.255768 111.599609,150.950928 111.353767,150.863281 
	C110.126434,150.425705 108.036095,149.410385 108.101570,148.795532 
	C109.055931,139.832504 102.593315,133.795227 99.503487,126.452164 
	C104.007507,125.229477 104.091606,125.260071 106.646942,129.750504 
	C108.122269,132.343094 109.565254,134.954071 111.523743,138.451309 
	C113.452354,134.496841 114.924431,131.134338 116.730629,127.962067 
	C117.360840,126.855225 118.815361,126.217705 120.329659,125.918442 
	C118.777428,133.746796 111.537254,139.022293 113.045319,147.927261 
z"/>
<path fill="#F6F4F8" opacity="1.000000" stroke="none" 
	d="
M311.802795,130.443146 
	C313.054718,128.333359 311.861328,123.871719 317.230103,126.564079 
	C315.105011,130.428879 312.566772,134.084900 311.027069,138.121780 
	C309.557373,141.975052 309.127777,146.225021 307.969177,151.549545 
	C306.682678,150.486984 303.948669,149.171265 304.059540,148.170761 
	C304.916779,140.433853 299.675385,135.207626 296.796082,129.031235 
	C296.387604,128.155014 295.877716,127.326065 295.043701,125.793274 
	C304.144653,125.131104 302.874695,134.233902 307.765839,137.522583 
	C308.987946,135.407684 310.322266,133.098526 311.802795,130.443146 
z"/>
<path fill="#F5F3F8" opacity="1.000000" stroke="none" 
	d="
M122.921829,147.935211 
	C120.079460,139.941879 122.107033,134.103104 127.910194,133.125809 
	C132.217133,132.400497 135.888611,133.530869 137.783035,137.885895 
	C139.537384,141.918930 138.282013,147.486298 135.270325,149.755569 
	C131.914062,152.284470 127.085159,151.690170 122.921829,147.935211 
M129.583588,135.115173 
	C126.906006,137.966034 125.884682,144.265182 127.742729,147.325623 
	C128.192169,148.065887 129.150330,148.924576 129.890991,148.940002 
	C130.624512,148.955292 131.851715,148.106491 132.046646,147.408768 
	C133.243729,143.124130 134.447311,138.741364 129.583588,135.115173 
z"/>
<path fill="#F5F3F8" opacity="1.000000" stroke="none" 
	d="
M325.232452,151.256683 
	C318.981049,149.816971 316.643127,146.342529 317.573761,140.397339 
	C318.395508,135.147842 321.639404,132.576080 326.898071,133.005020 
	C331.510529,133.381241 334.393066,136.689774 334.555786,141.794464 
	C334.741791,147.628845 331.918671,150.621887 325.232452,151.256683 
M323.183807,138.234283 
	C323.245270,141.015182 323.089935,143.827652 323.487610,146.559616 
	C323.623962,147.496368 325.036072,148.588272 326.079163,148.904907 
	C326.582428,149.057678 328.175262,147.633286 328.250000,146.827927 
	C328.533264,143.776047 328.997162,140.533463 328.266602,137.647461 
	C327.352478,134.036331 325.224396,134.016678 323.183807,138.234283 
z"/>
<path fill="#F4F1F7" opacity="1.000000" stroke="none" 
	d="
M419.132385,141.216690 
	C420.785583,134.542618 424.181488,132.045212 429.673706,133.089127 
	C434.153412,133.940613 436.593048,137.781815 436.162140,143.305115 
	C435.769836,148.333588 432.752258,151.225006 427.832550,151.286514 
	C422.254150,151.356247 419.770630,148.607407 419.132385,141.216690 
M430.767181,144.122360 
	C430.528870,141.841812 430.482666,139.515549 429.956421,137.303482 
	C429.749573,136.433990 428.460632,135.237595 427.680206,135.249207 
	C426.859894,135.261414 425.532043,136.430420 425.351196,137.288803 
	C424.881409,139.519073 424.549957,141.910049 424.873596,144.133514 
	C425.124390,145.856522 426.447418,147.423462 427.293823,149.059784 
	C428.409973,147.685867 429.526093,146.311935 430.767181,144.122360 
z"/>
<path fill="#FBFAFC" opacity="1.000000" stroke="none" 
	d="
M446.070740,74.183777 
	C443.288147,74.183777 440.978027,74.183777 438.640564,74.183777 
	C439.410004,67.705170 442.003296,65.154938 447.973358,65.017387 
	C452.112610,64.922020 456.256134,64.999252 460.397552,65.026344 
	C460.856049,65.029343 461.313354,65.209541 461.769989,65.307304 
	C460.448273,72.037666 458.289642,73.997536 452.009979,74.171951 
	C450.189026,74.222534 448.365540,74.182358 446.070740,74.183777 
z"/>
<path fill="#F4F1F7" opacity="1.000000" stroke="none" 
	d="
M486.500916,151.002136 
	C485.265656,151.115173 484.427216,151.272919 483.615631,151.184402 
	C477.799713,150.550262 476.770569,148.429520 480.087006,143.507614 
	C477.973267,140.689468 475.857513,137.116058 479.891571,134.737488 
	C482.139954,133.411804 485.674103,134.080261 488.606812,134.244019 
	C489.270599,134.281082 490.177887,135.905243 490.322205,136.893860 
	C490.399323,137.422226 489.087769,138.659912 488.403259,138.659653 
	C487.616455,138.659348 486.827637,137.647583 486.044189,137.069046 
	C485.175293,136.427368 484.375580,135.616364 483.405853,135.233536 
	C483.119781,135.120621 481.804077,136.455048 481.914276,136.704254 
	C482.346283,137.681000 483.033997,138.644272 483.865570,139.317459 
	C484.747650,140.031540 486.108002,140.202042 486.891815,140.980255 
	C488.435242,142.512558 490.797150,144.291748 490.811737,145.986099 
	C490.825806,147.623703 488.313019,149.283051 486.500916,151.002136 
z"/>
<path fill="#F4F1F7" opacity="1.000000" stroke="none" 
	d="
M472.551605,143.570587 
	C470.526550,144.269516 468.839813,144.782455 467.008698,145.339294 
	C470.482605,148.745102 470.514252,148.747421 475.155914,146.161041 
	C475.152954,150.296814 472.242645,152.268097 467.622620,151.037460 
	C462.961334,149.795853 461.611786,146.168121 461.683197,141.849243 
	C461.756134,137.439758 463.532867,133.622253 468.219543,133.290955 
	C470.677582,133.117172 474.184021,134.583298 475.625275,136.503540 
	C477.492188,138.990921 475.842896,141.861115 472.551605,143.570587 
M466.221832,142.248276 
	C469.710297,144.110519 470.847992,141.305283 471.730072,139.068283 
	C472.084412,138.169617 470.839325,136.640259 470.322205,135.397949 
	C468.975769,136.936096 467.593018,138.445023 466.313690,140.037094 
	C466.059235,140.353790 466.200867,140.988785 466.221832,142.248276 
z"/>
<path fill="#F1EEF5" opacity="1.000000" stroke="none" 
	d="
M262.190552,151.030334 
	C255.116562,151.293396 252.016724,148.573257 251.907883,142.398483 
	C251.808578,136.764694 254.928024,133.039688 259.845123,132.981949 
	C263.151001,132.943130 266.379761,134.097168 266.205963,137.635559 
	C266.100098,139.791214 263.698547,142.061813 261.880341,143.816849 
	C260.854980,144.806595 258.921356,144.855392 257.273468,145.366318 
	C260.634796,148.693420 260.634796,148.693420 266.534454,147.012421 
	C265.206238,148.326355 263.878021,149.640274 262.190552,151.030334 
M257.659424,143.064713 
	C258.403717,142.730881 259.507019,142.596207 259.823792,142.025208 
	C260.713348,140.421707 261.405731,138.670547 261.855011,136.896347 
	C261.936066,136.576263 260.491760,135.869904 259.751648,135.341873 
	C258.722168,136.880280 257.525360,138.339172 256.739349,139.993271 
	C256.387299,140.734100 256.858582,141.866180 257.659424,143.064713 
z"/>
<path fill="#F1EEF5" opacity="1.000000" stroke="none" 
	d="
M236.327484,137.869171 
	C238.982941,136.237869 241.517715,133.674255 244.337097,133.309265 
	C246.158920,133.073441 249.365250,135.651154 250.222427,137.693558 
	C251.505859,140.751709 248.879135,142.799515 246.016739,143.880646 
	C244.508820,144.450180 242.932861,144.839584 241.252090,145.351608 
	C243.889847,149.586502 246.778915,147.827606 249.693100,145.744232 
	C249.989273,146.219742 250.285446,146.695251 250.581604,147.170761 
	C248.932373,148.493057 247.208176,150.982635 245.650284,150.882584 
	C242.836700,150.701904 239.119339,149.709167 237.639664,147.691376 
	C236.055740,145.531464 236.618988,141.796997 236.318329,138.321014 
	C236.391556,137.892288 236.327484,137.869171 236.327484,137.869171 
M240.505417,141.436554 
	C242.509323,145.068741 244.361145,141.959000 244.975159,140.788513 
	C245.679855,139.445145 244.996918,137.373840 244.916779,135.618759 
	C243.647247,136.337524 242.190338,136.864105 241.180222,137.848938 
	C240.597748,138.416824 240.737183,139.725159 240.505417,141.436554 
z"/>
<path fill="#F3EFF6" opacity="1.000000" stroke="none" 
	d="
M453.445862,147.541824 
	C455.615295,147.340073 457.439941,146.939072 459.963745,146.384430 
	C459.346741,150.084015 456.920868,151.925888 453.666229,151.093933 
	C451.115967,150.442047 448.145203,148.569061 446.889709,146.367096 
	C444.833099,142.760117 445.079742,138.181442 448.427887,135.395157 
	C450.390167,133.762131 453.870758,133.316574 456.587738,133.504181 
	C457.887695,133.593933 459.136749,136.327042 460.033691,138.057404 
	C460.152496,138.286575 458.046692,139.668884 457.211914,140.327286 
	C455.903137,138.200790 455.050049,136.814713 454.196960,135.428650 
	C453.031708,137.022614 450.949097,138.599121 450.918396,140.214645 
	C450.873535,142.575928 452.301086,144.965225 453.445862,147.541824 
z"/>
<path fill="#F9F8FB" opacity="1.000000" stroke="none" 
	d="
M406.997620,137.951401 
	C406.322571,142.066254 405.647522,146.181091 404.937897,150.506897 
	C401.288544,151.051422 400.714142,150.806320 400.645233,147.147491 
	C400.508636,139.893341 400.604858,132.634781 400.604858,125.298065 
	C404.067352,124.356911 405.412994,125.879311 405.488800,129.281387 
	C405.542603,131.695923 405.921661,134.103210 406.542358,136.901871 
	C406.951996,137.510468 406.974823,137.730927 406.997620,137.951401 
z"/>
<path fill="#F8F6FA" opacity="1.000000" stroke="none" 
	d="
M212.008408,139.163757 
	C212.115997,136.511307 211.473602,135.663620 209.236328,136.093353 
	C207.857651,136.358200 206.590042,137.201309 205.045944,137.885147 
	C204.700958,133.834091 207.467163,133.242874 210.334366,133.019485 
	C214.267548,132.713028 217.408127,134.090851 217.977921,138.364090 
	C218.522797,142.450577 218.512344,146.611115 218.788742,151.494446 
	C216.884872,150.809036 215.451279,150.292938 213.857788,148.992126 
	C213.151749,145.548782 212.605606,142.890152 212.050247,139.964417 
	C212.030151,139.519455 212.019287,139.341599 212.008408,139.163757 
z"/>
<path fill="#ECE7F1" opacity="1.000000" stroke="none" 
	d="
M227.979767,137.930206 
	C227.249924,142.021240 226.520081,146.112289 225.737015,150.501755 
	C222.246033,151.193542 221.460434,150.760880 221.329208,146.832886 
	C221.180328,142.375839 221.294830,137.909988 221.294830,132.002350 
	C223.767044,133.748047 225.503494,134.974182 227.631775,136.454697 
	C228.009003,137.116119 227.994385,137.523163 227.979767,137.930206 
z"/>
<path fill="#ECE7F1" opacity="1.000000" stroke="none" 
	d="
M362.979736,137.930222 
	C362.249908,142.021271 361.520081,146.112305 360.737030,150.501755 
	C357.245972,151.193542 356.460480,150.760941 356.329254,146.832870 
	C356.180359,142.375824 356.294861,137.909973 356.294861,132.002274 
	C358.767120,133.748016 360.503510,134.974167 362.631775,136.454697 
	C363.008972,137.116119 362.994354,137.523178 362.979736,137.930222 
z"/>
<path fill="#F5F2F7" opacity="1.000000" stroke="none" 
	d="
M407.377655,137.822144 
	C406.974823,137.730927 406.951996,137.510468 406.901062,136.958755 
	C408.282806,135.512589 409.532867,133.942886 411.136505,133.379318 
	C414.282196,132.273819 416.884949,133.078369 417.004486,137.037674 
	C417.138977,141.492874 417.035461,145.955276 417.035461,150.792206 
	C413.742371,151.632751 412.104614,150.301636 412.184753,146.583725 
	C412.231293,144.423889 412.173981,142.261551 412.150391,140.100479 
	C412.113312,136.703552 410.617310,135.949570 407.377655,137.822144 
z"/>
<path fill="#F0ECF4" opacity="1.000000" stroke="none" 
	d="
M167.056808,138.022873 
	C166.603180,140.048965 165.967438,142.055450 165.746429,144.106613 
	C165.518967,146.217606 165.695938,148.372192 165.695938,150.692825 
	C162.078705,151.735275 160.586487,150.341339 160.680191,146.622406 
	C160.788223,142.335266 160.705292,138.043335 160.705292,132.090286 
	C162.975403,133.806030 164.610397,135.041748 166.541489,136.482590 
	C166.789825,136.843246 166.673935,137.016098 166.708176,137.150787 
	C166.784622,137.451584 166.935974,137.733353 167.056808,138.022873 
z"/>
<path fill="#EFEBF3" opacity="1.000000" stroke="none" 
	d="
M441.406342,151.017395 
	C440.216522,149.692169 438.891602,148.434875 438.809418,147.101013 
	C438.534912,142.645767 438.705353,138.163116 438.705353,133.394943 
	C441.449829,132.676208 443.460815,133.367966 443.629272,136.691452 
	C443.848145,141.008957 443.891815,145.339722 443.817352,149.661453 
	C443.809204,150.135590 442.530212,150.587830 441.406342,151.017395 
z"/>
<path fill="#E3C05F" opacity="1.000000" stroke="none" 
	d="
M111.549072,99.182556 
	C116.892120,100.961510 121.805527,102.681969 126.718925,104.402435 
	C115.073547,101.982803 103.573807,98.795830 92.085815,105.650528 
	C97.571953,100.362885 104.076660,98.917030 111.549072,99.182556 
z"/>
<path fill="#F9F7FB" opacity="1.000000" stroke="none" 
	d="
M275.062439,138.147751 
	C274.507233,142.293182 273.952057,146.438629 273.172760,152.257462 
	C271.434082,150.377838 269.295563,149.145218 269.161743,147.723831 
	C268.717224,143.002838 268.993744,138.213974 270.054901,132.532288 
	C271.457794,133.885468 272.860657,135.238632 274.628876,137.032364 
	C275.016937,137.697861 275.039703,137.922806 275.062439,138.147751 
z"/>
<path fill="#E4C15F" opacity="1.000000" stroke="none" 
	d="
M67.179993,102.297577 
	C59.809780,102.606491 52.857719,103.022575 46.697731,103.391258 
	C56.671356,96.860016 72.389038,97.694061 76.971710,105.934608 
	C73.639343,104.679726 70.618744,103.542244 67.179993,102.297577 
z"/>
<path fill="#F3EFF6" opacity="1.000000" stroke="none" 
	d="
M211.655762,139.185471 
	C212.019287,139.341599 212.030151,139.519455 211.847305,140.225372 
	C206.949692,144.902664 207.038712,146.303223 212.180374,149.042068 
	C209.848740,151.869934 207.071152,152.360855 204.726837,149.484558 
	C202.288116,146.492432 203.363297,143.602814 206.471176,141.597107 
	C207.971191,140.629059 209.685715,139.993362 211.655762,139.185471 
z"/>
<path fill="#714B96" opacity="1.000000" stroke="none" 
	d="
M212.418213,149.080307 
	C207.038712,146.303223 206.949692,144.902664 211.856522,140.492493 
	C212.605606,142.890152 213.151749,145.548782 213.655396,148.645203 
	C213.612869,149.083023 213.136505,149.155930 213.136505,149.155930 
	C213.136505,149.155930 212.656036,149.118546 212.418213,149.080307 
z"/>
<path fill="#F2EEF5" opacity="1.000000" stroke="none" 
	d="
M167.445831,137.904251 
	C166.935974,137.733353 166.784622,137.451584 166.708176,137.150787 
	C166.673935,137.016098 166.789825,136.843246 166.923920,136.520477 
	C167.677109,135.645386 168.233658,134.535919 169.034515,134.315948 
	C170.554794,133.898407 172.214951,133.990234 173.817017,133.870499 
	C173.507523,135.520737 173.293259,137.198334 172.831711,138.804901 
	C172.689148,139.301178 171.873062,139.603973 171.445251,139.933762 
	C170.155975,139.166672 168.995407,138.476151 167.445831,137.904251 
z"/>
<path fill="#EFEBF3" opacity="1.000000" stroke="none" 
	d="
M275.464661,138.021606 
	C275.039703,137.922806 275.016937,137.697861 274.965637,137.134979 
	C275.218506,136.396088 275.431580,135.914566 275.792908,135.607712 
	C277.624390,134.052444 279.674683,131.279144 281.901611,134.098740 
	C282.758575,135.183746 281.195587,138.180008 280.720764,140.372070 
	C278.234955,139.103714 277.050934,138.499573 275.464661,138.021606 
z"/>
<path fill="#F1EDF5" opacity="1.000000" stroke="none" 
	d="
M228.374344,137.808670 
	C227.994385,137.523163 228.009003,137.116119 228.025757,136.403595 
	C229.902573,135.140930 231.777252,134.183731 233.651917,133.226532 
	C234.233810,134.779633 234.815704,136.332733 235.862534,137.877502 
	C236.327484,137.869171 236.391556,137.892288 236.438202,137.886017 
	C235.027985,138.427399 233.571106,138.975067 231.708008,139.675446 
	C231.038544,139.222549 229.903732,138.454849 228.374344,137.808670 
z"/>
<path fill="#F1EDF5" opacity="1.000000" stroke="none" 
	d="
M363.368958,137.809540 
	C362.994354,137.523178 363.008972,137.116119 363.025757,136.403595 
	C363.717407,135.396942 364.303131,134.295074 365.119507,134.083511 
	C366.530945,133.717758 368.085510,133.904434 369.580048,133.859375 
	C369.356812,135.444733 369.288422,137.076340 368.835358,138.593048 
	C368.649689,139.214600 367.633179,139.588013 367.062683,140.022476 
	C365.836182,139.156326 364.797180,138.422592 363.368958,137.809540 
z"/>
<path fill="#E9E3EE" opacity="1.000000" stroke="none" 
	d="
M283.663696,147.292145 
	C285.297577,147.152557 286.764618,147.338821 288.231689,147.525101 
	C287.860840,149.511414 287.489990,151.497711 287.119141,153.484024 
	C286.644440,153.464203 286.169739,153.444366 285.695038,153.424530 
	C284.962341,151.489029 284.229614,149.553528 283.663696,147.292145 
z"/>
<path fill="#F7D55B" opacity="1.000000" stroke="none" 
	d="
M91.946396,100.968193 
	C91.649467,101.389534 91.136520,101.601601 90.623581,101.813660 
	C90.713104,101.453217 90.802628,101.092773 91.091125,100.540680 
	C91.436859,100.485664 91.583618,100.622292 91.946396,100.968193 
z"/>
<path fill="#542580" opacity="1.000000" stroke="none" 
	d="
M271.038452,82.999054 
	C265.014465,83.202301 259.218384,83.202301 252.414444,83.202301 
	C255.700043,74.401711 258.756958,66.213623 262.218872,56.940811 
	C265.642151,65.974663 268.614532,73.818672 271.654541,82.025894 
	C271.570190,82.524673 271.418274,82.660248 271.038452,82.999054 
z"/>
<path fill="#592C84" opacity="1.000000" stroke="none" 
	d="
M129.988098,135.123169 
	C134.447311,138.741364 133.243729,143.124130 132.046646,147.408768 
	C131.851715,148.106491 130.624512,148.955292 129.890991,148.940002 
	C129.150330,148.924576 128.192169,148.065887 127.742729,147.325623 
	C125.884682,144.265182 126.906006,137.966034 129.988098,135.123169 
z"/>
<path fill="#592C84" opacity="1.000000" stroke="none" 
	d="
M323.323730,137.844147 
	C325.224396,134.016678 327.352478,134.036331 328.266602,137.647461 
	C328.997162,140.533463 328.533264,143.776047 328.250000,146.827927 
	C328.175262,147.633286 326.582428,149.057678 326.079163,148.904907 
	C325.036072,148.588272 323.623962,147.496368 323.487610,146.559616 
	C323.089935,143.827652 323.245270,141.015182 323.323730,137.844147 
z"/>
<path fill="#5B2E86" opacity="1.000000" stroke="none" 
	d="
M430.704712,144.530182 
	C429.526093,146.311935 428.409973,147.685867 427.293823,149.059784 
	C426.447418,147.423462 425.124390,145.856522 424.873596,144.133514 
	C424.549957,141.910049 424.881409,139.519073 425.351196,137.288803 
	C425.532043,136.430420 426.859894,135.261414 427.680206,135.249207 
	C428.460632,135.237595 429.749573,136.433990 429.956421,137.303482 
	C430.482666,139.515549 430.528870,141.841812 430.704712,144.530182 
z"/>
<path fill="#603589" opacity="1.000000" stroke="none" 
	d="
M466.190857,141.862640 
	C466.200867,140.988785 466.059235,140.353790 466.313690,140.037094 
	C467.593018,138.445023 468.975769,136.936096 470.322205,135.397949 
	C470.839325,136.640259 472.084412,138.169617 471.730072,139.068283 
	C470.847992,141.305283 469.710297,144.110519 466.190857,141.862640 
z"/>
<path fill="#61368A" opacity="1.000000" stroke="none" 
	d="
M257.307861,142.942719 
	C256.858582,141.866180 256.387299,140.734100 256.739349,139.993271 
	C257.525360,138.339172 258.722168,136.880280 259.751648,135.341873 
	C260.491760,135.869904 261.936066,136.576263 261.855011,136.896347 
	C261.405731,138.670547 260.713348,140.421707 259.823792,142.025208 
	C259.507019,142.596207 258.403717,142.730881 257.307861,142.942719 
z"/>
<path fill="#61368A" opacity="1.000000" stroke="none" 
	d="
M240.528549,141.068390 
	C240.737183,139.725159 240.597748,138.416824 241.180222,137.848938 
	C242.190338,136.864105 243.647247,136.337524 244.916779,135.618759 
	C244.996918,137.373840 245.679855,139.445145 244.975159,140.788513 
	C244.361145,141.959000 242.509323,145.068741 240.528549,141.068390 
z"/>
</svg>